<?xml version="1.0" encoding="utf-8"?>
<svg viewBox="0 0 500 500" width="500" height="500" xmlns="http://www.w3.org/2000/svg" xmlns:bx="https://boxy-svg.com">
  <g transform="matrix(1, 0, 0, 1, 0, -60.193745)">
    <g>
      <ellipse style="stroke: rgb(0, 0, 0); fill: rgb(210, 32, 32);" cx="137.714" cy="274.044" rx="22.931" ry="22.931"/>
      <ellipse style="stroke: rgb(0, 0, 0); fill: rgb(210, 32, 32);" cx="358.424" cy="274.044" rx="25.797" ry="25.797"/>
    </g>
    <g transform="matrix(1, 0, 0, 1, -1.433184, -98.889725)">
      <path d="M 367.488 266.19 C 362.453 261.156 354.314 261.156 349.278 266.19 L 342.359 273.087 L 364.867 295.596 L 371.787 288.675 C 376.822 283.641 376.822 275.502 371.787 270.467 L 367.488 266.19 Z M 298.7 316.77 C 297.297 318.172 296.216 319.896 295.596 321.805 L 288.79 342.221 C 288.124 344.199 288.652 346.382 290.123 347.877 C 291.595 349.371 293.778 349.877 295.78 349.21 L 316.196 342.405 C 318.081 341.784 319.805 340.704 321.23 339.302 L 359.693 300.815 L 337.162 278.284 L 298.7 316.77 Z" id="path_0" style="fill: rgb(18, 223, 63);" transform="matrix(-0.964849, 0.262803, -0.262803, -0.964849, 784.397034, 437.505147)" bx:origin="0.855 0.101"/>
      <path d="M 143.476 265.904 C 138.441 260.87 130.302 260.87 125.266 265.904 L 118.347 272.801 L 140.855 295.31 L 147.775 288.389 C 152.81 283.355 152.81 275.216 147.775 270.181 L 143.476 265.904 Z M 74.688 316.484 C 73.285 317.886 72.204 319.61 71.584 321.519 L 64.778 341.935 C 64.112 343.913 64.64 346.096 66.111 347.591 C 67.583 349.085 69.766 349.591 71.768 348.924 L 92.184 342.119 C 94.069 341.498 95.793 340.418 97.218 339.016 L 135.681 300.529 L 113.15 277.998 L 74.688 316.484 Z" id="path-2" style="fill: rgb(18, 223, 63);" transform="matrix(-0.280917, 0.959732, -0.959732, -0.280917, 437.804036, 208.596545)" bx:origin="0.876 0.071"/>
      <path d="M 357.461 392.769 C 342.15 392.769 332.58 376.194 340.237 362.933 C 347.892 349.674 367.031 349.674 374.688 362.933 C 376.432 365.957 377.352 369.387 377.352 372.878 C 377.352 383.864 368.447 392.769 357.461 392.769 M 137.758 392.769 C 122.446 392.769 112.877 376.194 120.533 362.933 C 128.188 349.674 147.327 349.674 154.984 362.933 C 156.729 365.957 157.648 369.387 157.648 372.878 C 157.648 383.864 148.743 392.769 137.758 392.769 M 364.589 273.013 L 349.754 265.637 C 284.75 236.482 210.386 236.482 145.382 265.637 L 130.547 273.096 C 62.341 310.141 15.682 379.26 8.886 460.81 L 486.25 460.81 C 479.454 379.177 432.796 310.141 364.506 273.013" style="paint-order: fill; fill: rgb(15, 242, 64);"/>
    </g>
  </g>
</svg>